<svg xmlns="http://www.w3.org/2000/svg" version="1.1" xmlns:xlink="http://www.w3.org/1999/xlink" xmlns:svgjs="http://svgjs.com/svgjs" width="1440" height="560" preserveAspectRatio="none" viewBox="0 0 1440 560"><g mask="url(&quot;#SvgjsMask1003&quot;)" fill="none"><rect width="1440" height="560" x="0" y="0" fill="url(#SvgjsLinearGradient1004)"></rect><path d="M1512 560L0 560 L0 283.47Q83.7 247.17, 120 330.87Q185.06 275.93, 240 340.98Q263.72 292.7, 312 316.42Q331.78 264.2, 384 283.98Q430 257.98, 456 303.97Q525.7 253.67, 576 323.37Q660.45 287.82, 696 372.27Q714.54 270.81, 816 289.35Q861.69 263.05, 888 308.74Q955.58 304.32, 960 371.9Q1004.88 296.78, 1080 341.66Q1127.78 269.44, 1200 317.22Q1253.31 298.53, 1272 351.84Q1300.91 260.75, 1392 289.67Q1469 246.67, 1512 323.67z" fill="#182f5d"></path><path d="M1464 560L0 560 L0 442.66Q32.14 402.8, 72 434.94Q101.19 392.13, 144 421.32Q196.29 353.61, 264 405.89Q296.66 318.55, 384 351.21Q434.09 329.3, 456 379.39Q541.58 344.97, 576 430.54Q600.72 335.25, 696 359.97Q770.49 314.46, 816 388.94Q904.03 356.97, 936 444.99Q966.85 403.84, 1008 434.68Q1029.71 336.39, 1128 358.11Q1169.39 327.5, 1200 368.89Q1273.67 322.56, 1320 396.24Q1348.35 352.59, 1392 380.94Q1418.65 335.59, 1464 362.24z" fill="#25467d"></path><path d="M1512 560L0 560 L0 484.75Q56.11 420.86, 120 476.96Q173.07 410.03, 240 463.11Q292.75 443.87, 312 496.62Q316.63 429.25, 384 433.89Q438.86 368.75, 504 423.61Q600.69 400.31, 624 497Q638.05 439.06, 696 453.11Q722.11 407.22, 768 433.32Q822.2 415.52, 840 469.72Q921.14 430.86, 960 512Q1007.21 439.21, 1080 486.41Q1083.95 418.36, 1152 422.31Q1206.92 405.23, 1224 460.15Q1280.9 445.05, 1296 501.95Q1317.53 451.48, 1368 473.01Q1390.63 423.64, 1440 446.27Q1467.34 401.61, 1512 428.94z" fill="#356cb1"></path><path d="M1488 560L0 560 L0 563.23Q47.53 538.76, 72 586.3Q112.61 506.9, 192 547.51Q214.58 498.09, 264 520.66Q285.95 470.61, 336 492.56Q377.69 462.25, 408 503.94Q468.36 492.3, 480 552.66Q509.01 461.67, 600 490.69Q642.99 461.68, 672 504.66Q746.56 507.23, 744 581.79Q736.43 502.22, 816 494.65Q905.68 464.33, 936 554.01Q972.74 470.75, 1056 507.48Q1127.25 458.73, 1176 529.98Q1192.08 474.06, 1248 490.14Q1318.38 440.52, 1368 510.91Q1454.79 477.7, 1488 564.49z" fill="white"></path></g><defs><mask id="SvgjsMask1003"><rect width="1440" height="560" fill="#ffffff"></rect></mask><linearGradient x1="15.28%" y1="-39.29%" x2="84.72%" y2="139.29%" gradientUnits="userSpaceOnUse" id="SvgjsLinearGradient1004"><stop stop-color="#0e2a47" offset="0"></stop><stop stop-color="#00459e" offset="1"></stop></linearGradient></defs></svg>