<svg xmlns="http://www.w3.org/2000/svg" version="1.1" xmlns:xlink="http://www.w3.org/1999/xlink" xmlns:svgjs="http://svgjs.com/svgjs" width="1440" height="560" preserveAspectRatio="none" viewBox="0 0 1440 560"><g mask="url(&quot;#SvgjsMask1000&quot;)" fill="none"><rect width="1440" height="560" x="0" y="0" fill="#0e2a47"></rect><path d="M 0,388 C 57.6,353.4 172.8,215.6 288,215 C 403.2,214.4 460.8,414.8 576,385 C 691.2,355.2 748.8,79.2 864,66 C 979.2,52.8 1036.8,331.2 1152,319 C 1267.2,306.8 1382.4,67.8 1440,5L1440 560L0 560z" fill="#184a7e"></path><path d="M 0,15 C 96,82.4 288,312.6 480,352 C 672,391.4 768,181.6 960,212 C 1152,242.4 1344,445.6 1440,504L1440 560L0 560z" fill="#2264ab"></path></g><defs><mask id="SvgjsMask1000"><rect width="1440" height="560" fill="#ffffff"></rect></mask></defs></svg>